<svg xmlns="http://www.w3.org/2000/svg" viewBox="0 0 58 58"><defs><style>.cls-1{fill:#7dfec6;stroke:#7dfec6;stroke-linecap:round;stroke-linejoin:round;}.cls-2{fill:none;}</style></defs><g id="Layer_2" data-name="Layer 2"><g id="Layer_1-2" data-name="Layer 1"><path class="cls-1" d="M6.77,26.35H21.15V23.73l-.39.34-3.13-3.21L29,10c3.73,3.58,7.46,7.15,11.26,10.81-1,1-2,2-3,2.94-.08.07-.24.07-.39.11v2.49H51.23V48h-18v-.46c0-2,0-4.07,0-6.1A4.2,4.2,0,0,0,25,40.34a4.73,4.73,0,0,0-.15,1.24c0,2,0,4,0,5.93V48h-18ZM50,46.8V27.55H35.62c0-1.59,0-3.15,0-4.71a1,1,0,0,0-.26-.63q-3-3.06-6.08-6.1L29,15.88a.63.63,0,0,0-.12.07c-2.12,2.12-4.25,4.24-6.36,6.37a.75.75,0,0,0-.15.47c0,.8,0,1.61,0,2.42v2.37H8V46.79H23.59v-.48c0-1.6,0-3.2,0-4.81a5.41,5.41,0,1,1,10.82,0c0,1.62,0,3.23,0,4.85v.46Zm-11.57-26L29,11.67l-9.65,9.22,1.44,1.5L29,14.16l8,8Z"/><path class="cls-1" d="M31.4,25.15A2.4,2.4,0,1,1,29,22.76,2.39,2.39,0,0,1,31.4,25.15Zm-3.59,0a1.19,1.19,0,1,0,2.38,0A1.2,1.2,0,0,0,29,24,1.17,1.17,0,0,0,27.81,25.15Z"/><path class="cls-1" d="M33.19,31.26V32.4H24.82V31.26Z"/><path class="cls-1" d="M11.59,31.25h1.14V36H11.59Z"/><path class="cls-1" d="M46.42,36H45.27V31.26h1.15Z"/><path class="cls-1" d="M16.34,36H15.2V31.25h1.14Z"/><path class="cls-1" d="M19.94,36H18.8V31.26h1.14Z"/><path class="cls-1" d="M39.2,36H38.06V31.26H39.2Z"/><path class="cls-1" d="M42.79,36H41.66V31.26h1.13Z"/><path class="cls-1" d="M11.59,38.47h1.14v4.76H11.59Z"/><path class="cls-1" d="M16.35,38.49v4.73H15.21V38.49Z"/><path class="cls-1" d="M18.8,38.48h1.14v4.75H18.8Z"/><path class="cls-1" d="M38.05,43.23V38.5h1.16v4.73Z"/><path class="cls-1" d="M42.8,43.24H41.67V38.49H42.8Z"/><path class="cls-1" d="M46.42,43.24H45.26V38.5h1.16Z"/><rect class="cls-2" width="58" height="58"/></g></g></svg>