<svg xmlns="http://www.w3.org/2000/svg" viewBox="0 0 58 58"><defs><style>.cls-1{fill:#7dfec6;stroke:#7dfec6;stroke-linecap:round;stroke-linejoin:round;}.cls-2{fill:none;}</style></defs><g id="Layer_2" data-name="Layer 2"><g id="Layer_1-2" data-name="Layer 1"><path class="cls-1" d="M41.29,33.9v2.68a5.56,5.56,0,0,1-5.79,5.8H33.44V48H18.57c0-.22,0-.43,0-.63,0-3.6,0-7.2,0-10.79a1,1,0,0,0-.29-.7A14.46,14.46,0,0,1,13,23.64,14.16,14.16,0,0,1,41.17,22.3,8.68,8.68,0,0,1,41.28,24a3,3,0,0,0,.49,1.79c1,1.64,1.92,3.3,2.86,4.95a2.13,2.13,0,0,1,.1,2.32,1.78,1.78,0,0,1-1.56.86ZM40.37,33c.1,0,.13-.07.16-.07a22.83,22.83,0,0,1,2.34,0c1.11.11,1.48-.88,1-1.71-1-1.77-2-3.56-3.09-5.32a2.87,2.87,0,0,1-.42-1.53,12.74,12.74,0,0,0-.17-2.23c-1-5.37-4.07-9-9.3-10.6a12.58,12.58,0,0,0-13.6,3.79,13.85,13.85,0,0,0,1.5,19.72,1.68,1.68,0,0,1,.7,1.5c0,3.28,0,6.57,0,9.86v.62h13V41.43h3.28A4.59,4.59,0,0,0,40.18,38a6.79,6.79,0,0,0,.18-1.56C40.39,35.31,40.37,34.15,40.37,33Z"/><path class="cls-1" d="M28.76,16.45c0,.93,0,1.79,0,2.66a1.09,1.09,0,0,0,.3.67,1.2,1.2,0,0,1,.07,1.71,1.17,1.17,0,0,1-1.7,0,1.18,1.18,0,0,1,.09-1.7,1.08,1.08,0,0,0,.29-.63c0-.56,0-1.12,0-1.72H25c0,.17,0,.34,0,.51,0,1.49,0,3,0,4.47a1.31,1.31,0,0,0,.34.79c.85.9,1.74,1.76,2.6,2.64a.78.78,0,0,0,.75.28,1.14,1.14,0,0,1,1.22,1.12,1.17,1.17,0,0,1-1.13,1.21,1.13,1.13,0,0,1-1.18-1.16.91.91,0,0,0-.35-.79c-.3-.28-.59-.59-.89-.88,0,0-.05,0-.13-.1-.69.69-1.4,1.39-2.09,2.1a.74.74,0,0,0-.11.45c0,1,0,2,0,2.95a.81.81,0,0,0,.26.53,1.18,1.18,0,1,1-1.57,1.75,1.12,1.12,0,0,1,.06-1.69c.36-.3.31-.6.24-1-.92,0-1.82,0-2.72,0a.93.93,0,0,1-.84-.39c-.35-.46-.75-.89-1.13-1.33s-.57-.74-1.21-.73a1.11,1.11,0,0,1-1-1.37,1.19,1.19,0,0,1,1.36-1,1.23,1.23,0,0,1,1,1.37.88.88,0,0,0,.16.62c.5.63.93,1.44,1.59,1.76a6.07,6.07,0,0,0,2.31.09l.49,0c0-.62,0-1.22,0-1.81a1.35,1.35,0,0,1,.34-.79c.68-.73,1.4-1.42,2.15-2.16-.44-.46-.87-.87-1.24-1.32a1.28,1.28,0,0,1-.31-.76c0-2.32,0-4.65,0-7a1.07,1.07,0,0,0-.37-.94,1.11,1.11,0,0,1,0-1.61,1.15,1.15,0,0,1,1.58-.07,1.09,1.09,0,0,1,.15,1.6c-.58.49-.41,1-.39,1.66Z"/><path class="cls-1" d="M19.34,20.7h1.88c0,.92,0,1.81,0,2.69a1,1,0,0,0,.28.62,1.19,1.19,0,0,1,.1,1.71,1.16,1.16,0,0,1-1.69,0A1.18,1.18,0,0,1,20,24a1.21,1.21,0,0,0,.3-.68c0-.5,0-1,0-1.52a.82.82,0,0,0-.07-.21H15.78c0-.87.07-.94.83-.94h1.77c0-.56,0-1.09,0-1.63,0-.1-.16-.21-.26-.31a1.17,1.17,0,0,1-.09-1.7,1.16,1.16,0,0,1,1.69,0,1.2,1.2,0,0,1-.07,1.7,1.13,1.13,0,0,0-.28.63A11.33,11.33,0,0,0,19.34,20.7Z"/><path class="cls-1" d="M31.12,13c.95.22,1.07.24.92,1.09-.21,1.25.55,1.85,1.35,2.48a.75.75,0,0,0,.45.08,1.18,1.18,0,1,1,0,2.35,1.22,1.22,0,0,1-1.11-1.36.67.67,0,0,0-.2-.53,3,3,0,0,1-1.45-3.36A4.68,4.68,0,0,0,31.12,13Z"/><rect class="cls-2" width="58" height="58"/></g></g></svg>