<svg xmlns="http://www.w3.org/2000/svg" viewBox="0 0 58 58"><defs><style>.cls-1{fill:#7dfec6;stroke:#7dfec6;stroke-linecap:round;stroke-linejoin:round;}.cls-2{fill:none;}</style></defs><g id="Layer_2" data-name="Layer 2"><g id="Layer_1-2" data-name="Layer 1"><path class="cls-1" d="M30,38.52l1.42.7a18.53,18.53,0,0,1,4.75,3.15,7.52,7.52,0,0,1,2.39,5.27v.28s0,0,0,.08h-.78c-.2-.86-.4-1.69-.59-2.52-.08-.37-.3-.5-.75-.5q-7.5,0-15,0c-.33,0-.51.08-.58.37-.21.86-.43,1.72-.65,2.63h-.87c.09-.63.13-1.27.27-1.88a8.6,8.6,0,0,1,4.11-5.27c1.21-.76,2.52-1.4,3.78-2.09a4.6,4.6,0,0,1,.45-.23l-.58-.29a28.3,28.3,0,0,1-4.59-2.69,7.91,7.91,0,0,1-2.51-10.18,9.26,9.26,0,0,1,3.43-3.52c1.18-.74,2.45-1.37,3.67-2.05l.58-.28-.42-.22a24.54,24.54,0,0,1-5.11-3.06,7.78,7.78,0,0,1-3-5.85V10h.81c.21.88.41,1.71.6,2.54.08.37.3.5.75.5q7.5,0,15,0c.33,0,.51-.08.58-.36.21-.87.43-1.73.65-2.64h.87c-.09.63-.13,1.27-.27,1.89a8.58,8.58,0,0,1-4.11,5.26c-1.21.76-2.52,1.4-3.78,2.1l-.45.23.58.28a27.64,27.64,0,0,1,4.59,2.7,7.9,7.9,0,0,1,2.51,10.17,9.26,9.26,0,0,1-3.43,3.52c-1.18.74-2.45,1.37-3.67,2ZM29,32h7.63a.45.45,0,0,0,.5-.32,7.23,7.23,0,0,0,0-5.43.45.45,0,0,0-.5-.33H21.36c-.27,0-.39.07-.48.3a7.21,7.21,0,0,0,0,5.42c.1.28.25.35.56.35ZM36.47,13.9H21.52a8.94,8.94,0,0,0,1.7,1.82,27.48,27.48,0,0,0,5.64,3.22.39.39,0,0,0,.28,0,27.64,27.64,0,0,0,5.61-3.2A8.14,8.14,0,0,0,36.47,13.9Zm0,30.22a9,9,0,0,0-1.88-2,28.62,28.62,0,0,0-5.43-3.06.53.53,0,0,0-.39,0c-.7.33-1.4.66-2.08,1a16.66,16.66,0,0,0-4.09,2.72c-.39.38-.73.81-1.15,1.27Zm-14.95-19H36.47a8.7,8.7,0,0,0-1.85-1.93,28.92,28.92,0,0,0-5.46-3.09.44.44,0,0,0-.32,0,31.54,31.54,0,0,0-5.13,2.84A9.21,9.21,0,0,0,21.53,25.09Zm14.94,7.84H21.53a8.93,8.93,0,0,0,1.85,1.93,29.15,29.15,0,0,0,5,2.89,1.21,1.21,0,0,0,1.23,0,29.44,29.44,0,0,0,5-2.89A8.7,8.7,0,0,0,36.47,32.93Z"/><rect class="cls-2" width="58" height="58"/></g></g></svg>