<svg xmlns="http://www.w3.org/2000/svg" viewBox="0 0 51.98 51.98"><defs><style>.cls-1{fill:#3d3ab0;}.cls-2{fill:#fff;}</style></defs><g id="Layer_2" data-name="Layer 2"><g id="Layer_1-2" data-name="Layer 1"><circle class="cls-1" cx="25.99" cy="25.99" r="25.99"/><path class="cls-2" d="M40.08,37H11.57V15H40.08ZM12.29,20.66V36.3H39.36V20.66Zm27.08-5H12.28v4.24H39.37Z"/><path class="cls-2" d="M23.85,34.52c0-1.12,0-2.21,0-3.31A1.5,1.5,0,0,1,24.6,30a7.64,7.64,0,0,1,7.48-.9,12.31,12.31,0,0,1,1.75.94,1.38,1.38,0,0,1,.68,1.15c0,1.11,0,2.22,0,3.36Zm9.94-.71c0-.9,0-1.79,0-2.67a.83.83,0,0,0-.35-.54,7.13,7.13,0,0,0-8.4-.06,1,1,0,0,0-.46.88c0,.67,0,1.33,0,2v.39Z"/><path class="cls-2" d="M23.35,27.85v1.83l-1-.93c-.3-.3-.55-.7-.91-.85a3.4,3.4,0,0,0-1.24,0H18.13a.71.71,0,0,1-.81-.81V23.23a.71.71,0,0,1,.81-.81h5.74a.71.71,0,0,1,.8.82c0,1.24,0,2.48,0,3.71,0,.66-.24.9-.91.9Zm.59-.7v-4H18v4h.08c1,0,1.94,0,2.91,0a1.33,1.33,0,0,1,1.32.55,2,2,0,0,0,.29.27v-.79Z"/><path class="cls-2" d="M29.16,28.12a2.67,2.67,0,0,1,0-5.34,2.67,2.67,0,1,1,0,5.34Zm0-4.62a2,2,0,0,0-2,2,2,2,0,1,0,2-2Z"/><path class="cls-2" d="M21.17,17.83a.71.71,0,1,1-1.42-.08.7.7,0,0,1,.76-.66A.71.71,0,0,1,21.17,17.83Z"/><path class="cls-2" d="M17.26,17.79a.71.71,0,0,1,.69-.71.72.72,0,0,1,.73.71.73.73,0,0,1-.73.72A.72.72,0,0,1,17.26,17.79Z"/><path class="cls-2" d="M16.18,17.78a.72.72,0,0,1-.71.73.74.74,0,0,1-.71-.71.71.71,0,0,1,1.42,0Z"/></g></g></svg>