<svg xmlns="http://www.w3.org/2000/svg" viewBox="0 0 51.98 51.98"><defs><style>.cls-1{fill:#3d3ab0;}.cls-2{fill:#fff;}</style></defs><g id="Layer_2" data-name="Layer 2"><g id="Layer_1-2" data-name="Layer 1"><circle class="cls-1" cx="25.99" cy="25.99" r="25.99"/><path class="cls-2" d="M13.32,12.41H36V14.9h4.21v22a2.55,2.55,0,0,1-2.72,2.73H16.42a3,3,0,0,1-3.1-3.11V12.41Zm21.85.85h-21V36.51a2.1,2.1,0,0,0,2.29,2.29h19l.38,0a2.91,2.91,0,0,1-.63-2.08q0-11.49,0-23ZM36,15.77V37.21a1.7,1.7,0,0,0,1.61,1.59,1.73,1.73,0,0,0,1.76-1.86c0-6.93,0-13.87,0-20.8,0-.12,0-.24,0-.37Z"/><path class="cls-2" d="M16.7,24.94V20h7.1v5ZM23,20.81H17.55v3.3H23Z"/><path class="cls-2" d="M25.53,30h7.09v5H25.53Zm6.25.85H26.36v3.31h5.42Z"/><path class="cls-2" d="M16.7,17.82V17H32.63v.8Z"/><path class="cls-2" d="M32.63,27.09v.79H16.71v-.79Z"/><path class="cls-2" d="M25.52,21.18v-.8h7.12v.8Z"/><path class="cls-2" d="M16.7,31.24v-.81h7.09v.81Z"/><path class="cls-2" d="M23.8,33.8v.8H16.72v-.8Z"/><path class="cls-2" d="M25.52,24.52v-.78h7.11v.78Z"/></g></g></svg>