<svg xmlns="http://www.w3.org/2000/svg" viewBox="0 0 58 58"><defs><style>.cls-1{fill:#7dfec6;stroke:#7dfec6;stroke-linecap:round;stroke-linejoin:round;}.cls-2{fill:none;}</style></defs><g id="Layer_2" data-name="Layer 2"><g id="Layer_1-2" data-name="Layer 1"><path class="cls-1" d="M35.06,32.22H29.53l-.33.8a3.3,3.3,0,0,1-2,1.95.86.86,0,0,0-.43.39c-.24.47-.44,1-.68,1.49l-3.31-1.39c.23-.53.47-1,.68-1.54a.64.64,0,0,0,0-.47,3.29,3.29,0,0,1-.07-2.84q3.51-8.43,7-16.85c.24-.58.48-1.17.75-1.8l1.26.48,1-2.44,3.31,1.38-1,2.43,1.26.51-3.69,8.89a14.05,14.05,0,0,1,1.08,21.65h7.27V48H16.38V44.86h8.45a10.41,10.41,0,0,0,10.3-8.39A9.54,9.54,0,0,0,35.06,32.22ZM31.63,13.13a.77.77,0,0,0-.1.14q-3.71,8.94-7.41,17.87a2.1,2.1,0,0,0,0,1.52,1,1,0,0,0,.68.75A6.55,6.55,0,0,1,26,34a1.25,1.25,0,0,0,1.5-.19,2.53,2.53,0,0,0,.69-.81c.5-1.12.95-2.26,1.43-3.4l-.17-.15A2.48,2.48,0,0,1,31.25,25c.28,0,.34-.09.42-.29l4-9.54a2.23,2.23,0,0,0,.12-.34ZM29.55,44.86c1,0,2,0,3,0a1.18,1.18,0,0,0,.61-.21,13.06,13.06,0,0,0,.07-20.27l-.35-.26-.51,1.23a2.52,2.52,0,0,1,1,2.95,2.49,2.49,0,0,1-2.88,1.61l-.57,1.39h.5c1.66,0,3.32,0,5,0,.29,0,.42.09.48.37A11.16,11.16,0,0,1,33,42.35,12.59,12.59,0,0,1,29.55,44.86Zm11.17.92H17.27v1.31H40.72ZM31,29a1.58,1.58,0,1,0-1.59-1.59A1.59,1.59,0,0,0,31,29Zm3.82-15.55.66-1.6-1.65-.7-.65,1.61ZM24.3,34.19,24,35l1.65.68.35-.79Z"/><path class="cls-1" d="M19.75,37l.35-.84,7.51,3.12-.34.83Z"/><rect class="cls-2" width="58" height="58"/></g></g></svg>