<svg xmlns="http://www.w3.org/2000/svg" viewBox="0 0 58 58"><defs><style>.cls-1{fill:#7dfec6;stroke:#7dfec6;stroke-linecap:round;stroke-linejoin:round;}.cls-2{fill:none;}</style></defs><g id="Layer_2" data-name="Layer 2"><g id="Layer_1-2" data-name="Layer 1"><path class="cls-1" d="M18.89,18.18V16.25c-.29,0-.58,0-.87,0a1,1,0,0,1-1-1c0-.92,0-1.85,0-2.78A2.4,2.4,0,0,1,19.47,10H32.78a2.39,2.39,0,0,1,2.48,2.49c0,.9,0,1.8,0,2.7a1,1,0,0,1-1,1.06c-.28,0-.56,0-.86,0v1.93h1.22a2.41,2.41,0,0,1,2.61,2.59V38.91c0,.13,0,.25,0,.4h-.94V35H21.16c-1,0-1.28-.31-1.28-1.3v-8c0-1,.29-1.25,1.27-1.25h15a1.31,1.31,0,0,0,0-.22c0-1.22,0-2.44,0-3.66a1.41,1.41,0,0,0-1.43-1.42H33.15a.69.69,0,0,1-.77-.76c0-.69,0-1.38,0-2.1H19.88v1.9c0,.74-.22,1-1,1H17.56A1.44,1.44,0,0,0,16,20.65v21.5a1.43,1.43,0,0,0,1.53,1.51h8.56v.95H17.69A2.42,2.42,0,0,1,15.06,42q0-10.57,0-21.15a2.41,2.41,0,0,1,2.63-2.64ZM20.84,34H36.19V25.4H20.84ZM18,15.26H34.3V12.67A1.51,1.51,0,0,0,32.57,11H19.46A1.41,1.41,0,0,0,18,12.15C17.93,13.18,18,14.2,18,15.26Z"/><path class="cls-1" d="M35.26,40.78c1.35,0,2.7,0,4.05,0a3.6,3.6,0,0,1,2.89,5.76A3.38,3.38,0,0,1,39.39,48c-2.75,0-5.51,0-8.26,0a3.6,3.6,0,0,1-.23-7.19l.23,0Zm-.47,1-.1,0H31.26A2.64,2.64,0,1,0,31.17,47c1.14,0,2.29,0,3.43,0l.19,0Zm1,5.23c1.27,0,2.5,0,3.73,0A2.58,2.58,0,0,0,42,44.55a2.64,2.64,0,0,0-2.07-2.74.58.58,0,0,0-.19,0H35.8Z"/><rect class="cls-2" width="58" height="58"/></g></g></svg>