<svg xmlns="http://www.w3.org/2000/svg" viewBox="0 0 51.98 51.98"><defs><style>.cls-1{fill:#3d3ab0;}.cls-2{fill:#fff;}</style></defs><g id="Layer_2" data-name="Layer 2"><g id="Layer_1-2" data-name="Layer 1"><circle class="cls-1" cx="25.99" cy="25.99" r="25.99"/><path class="cls-2" d="M15.55,12.81H28.34a.66.66,0,0,1,.51.21q3.46,3.48,6.95,7a.65.65,0,0,1,.2.51V40.05H15.55Zm.7.68V39.37h19V20.63H28.14V13.49Zm12.6.57v5.87h5.87Z"/><path class="cls-2" d="M19,25.05v-.64H32.56v.64Z"/><path class="cls-2" d="M19,27.79v-.65H32.56v.65Z"/><path class="cls-2" d="M19,30.51v-.64H32.56v.64Z"/><path class="cls-2" d="M32.57,35.32V36H19v-.64Z"/><path class="cls-2" d="M32.56,33.24H19V32.6H32.56Z"/><path class="cls-2" d="M19,22.32v-.63h6.44v.63Z"/></g></g></svg>