<svg xmlns="http://www.w3.org/2000/svg" viewBox="0 0 58 58"><defs><style>.cls-1{fill:#7dfec6;stroke:#7dfec6;stroke-linecap:round;stroke-linejoin:round;}.cls-2{fill:none;}</style></defs><g id="Layer_2" data-name="Layer 2"><g id="Layer_1-2" data-name="Layer 1"><path class="cls-1" d="M48.12,11.55c-.29,1.3-.56,2.61-.89,3.91a33.91,33.91,0,0,1-2.56,7.46A27.07,27.07,0,0,1,25.41,37.44c-.73.15-1.48.26-2.22.35a.74.74,0,0,1-.53-.19c-.93-.9-1.83-1.8-2.73-2.73a.74.74,0,0,1-.19-.53c1.51-10.28,6.9-17.71,16.37-22.06a27.87,27.87,0,0,1,7.36-2c.91-.15,1.84-.19,2.77-.27a1.93,1.93,0,0,1,.48,0C47.69,10.15,48,10.54,48.12,11.55ZM23.42,36.89c1.12-.24,2.22-.41,3.28-.7A25.87,25.87,0,0,0,45.27,19a.9.9,0,0,0,0-.65,16.32,16.32,0,0,0-5.9-6,.58.58,0,0,0-.44-.08,20,20,0,0,0-2.3.76c-9.06,4.15-14.32,11.18-15.89,21a.62.62,0,0,0,.16.45c.71.74,1.43,1.45,2.16,2.17A1.64,1.64,0,0,0,23.42,36.89Zm16.91-25a18.14,18.14,0,0,1,5.43,5.5c.11-.42.22-.74.29-1.07.35-1.52.72-3,1-4.56.14-.71,0-.84-.74-.82A28.45,28.45,0,0,0,40.33,11.87Z"/><path class="cls-1" d="M26,38.27c-.32,1.47-.62,2.88-.92,4.28-.21,1-.43,1.93-.64,2.89A1.28,1.28,0,0,0,25,46.89a1.24,1.24,0,0,0,1.57-.25l7.23-7.22a1.34,1.34,0,0,0,.31-1.54c-.28-.71-.55-1.43-.85-2.18l.84-.45c.36,1,.75,1.92,1,2.89A1.81,1.81,0,0,1,34.57,40q-3.69,3.72-7.41,7.41a2.11,2.11,0,0,1-2.53.36,2.05,2.05,0,0,1-1.12-2.29C24,43.2,24.47,41,25,38.71a.56.56,0,0,1,.31-.29A4.48,4.48,0,0,1,26,38.27Z"/><path class="cls-1" d="M22.23,23.64l-.43.81c-.56-.22-1.12-.42-1.67-.66a1.47,1.47,0,0,0-1.8.36c-2.34,2.36-4.69,4.69-7,7A1.28,1.28,0,0,0,11.11,33a1.22,1.22,0,0,0,1.32.4L18.67,32l.52-.1a5.86,5.86,0,0,1-.15.81.39.39,0,0,1-.28.21c-2.07.48-4.13,1-6.2,1.41a2.09,2.09,0,0,1-2.41-1.12,2.13,2.13,0,0,1,.42-2.6q3.6-3.62,7.22-7.22a2.2,2.2,0,0,1,2.48-.53C20.92,23.1,21.55,23.37,22.23,23.64Z"/><path class="cls-1" d="M14.31,41.94a8.45,8.45,0,0,1,.4-1.14,16.07,16.07,0,0,1,3.12-4.37,2.55,2.55,0,0,1,.3-.26c.81-.64,1.34-.53,1.94.31a3.81,3.81,0,0,0,1,1c.81.55,1,1.09.35,1.87a9.38,9.38,0,0,1-1.17,1.19,14.51,14.51,0,0,1-3.48,2.33,5.39,5.39,0,0,1-1.25.41C14.76,43.39,14.29,43,14.31,41.94ZM19,36.67a3.05,3.05,0,0,0-.42.29,14.44,14.44,0,0,0-3.31,4.8,2.28,2.28,0,0,0-.11.59c1.27,0,5.11-2.66,5.65-3.91a7.2,7.2,0,0,1-1-.71A9.48,9.48,0,0,1,19,36.67Z"/><path class="cls-1" d="M37,23.78a3.22,3.22,0,1,1,3.24-3.22A3.23,3.23,0,0,1,37,23.78Zm-2.32-3.21a2.3,2.3,0,0,0,2.28,2.33,2.36,2.36,0,0,0,2.36-2.32A2.3,2.3,0,0,0,37,18.26,2.33,2.33,0,0,0,34.65,20.57Z"/><rect class="cls-2" width="58" height="58"/></g></g></svg>