<svg xmlns="http://www.w3.org/2000/svg" viewBox="0 0 51.98 51.98"><defs><style>.cls-1{fill:#3d3ab0;}.cls-2{fill:#fff;}</style></defs><g id="Layer_2" data-name="Layer 2"><g id="Layer_1-2" data-name="Layer 1"><circle class="cls-1" cx="25.99" cy="25.99" r="25.99"/><path class="cls-2" d="M26.49,34V41.9a2.81,2.81,0,0,1,0,.29.4.4,0,0,1-.8,0,2.81,2.81,0,0,1,0-.29v-8l-.28.27-6.72,6.72a1.61,1.61,0,0,1-.23.22A.38.38,0,0,1,17.9,41a.36.36,0,0,1,0-.51,1.2,1.2,0,0,1,.22-.23q3.34-3.34,6.7-6.7a2,2,0,0,1,.28-.21l0-.1H11.64c-.35,0-.53-.15-.53-.41s.19-.4.54-.4H13l.08,0V15.9H11.72c-.11,0-.26,0-.33-.05a.61.61,0,0,1-.25-.41c0-.12.17-.26.3-.34s.22,0,.34,0H25.67V13.61c0-.36.15-.55.42-.54s.39.18.4.53v1.48h14c.34,0,.53.15.53.4s-.19.4-.54.41H39.12l-.07,0V32.48H40.4c.13,0,.29,0,.37,0a.65.65,0,0,1,.25.41c0,.12-.17.26-.3.34a.77.77,0,0,1-.34,0H27.07l.26.28Q30.66,36.9,34,40.22l.18.18c.25.26.28.47.08.66s-.41.15-.65-.09L26.82,34.2a3.36,3.36,0,0,1-.24-.29ZM14,15.91V32.45H38.2V15.91Z"/><path class="cls-2" d="M23.28,19.16l8.06,5.19-8.06,5.21Zm.8,1.47v7.45l5.77-3.73Z"/></g></g></svg>